<svg width="141" height="115" viewBox="0 0 141 115" fill="none" xmlns="http://www.w3.org/2000/svg">
<path d="M0 61.3659L38.271 97.9555C61.6289 120.292 99.4942 120.292 122.852 97.9555C146.21 75.6195 146.21 39.4107 122.852 17.0747L104.989 0H0V61.3659Z" fill="white"/>
<path d="M59.2611 61.4874C57.0411 59.8088 54.0098 59.7806 51.7825 61.2123V47.9884C51.7825 44.6384 48.9429 41.916 45.4323 41.916C41.9216 41.916 39.082 44.6313 39.082 47.9884V78.1318C39.082 81.4819 41.9216 84.2043 45.4323 84.2043C47.431 84.2043 49.2085 83.3227 50.3738 81.9403C50.3885 81.9262 50.4033 81.9121 50.4107 81.898L60.3011 70.0141C62.4768 67.3835 62.0122 63.5679 59.2611 61.4874Z" fill="#F5B01A"/>
<path d="M37.9981 31.9922C35.9994 31.9922 34.2219 32.8738 33.0566 34.2561C33.0418 34.2702 33.0271 34.2843 33.0197 34.2984L23.1293 46.1823C20.9535 48.813 21.4182 52.6285 24.1692 54.7091C26.3892 56.3876 29.4205 56.4158 31.6479 54.9841V68.208C31.6479 71.5581 34.4874 74.2804 37.9981 74.2804C41.5088 74.2804 44.3483 71.5651 44.3483 68.208V38.0646C44.3483 34.7145 41.5088 31.9922 37.9981 31.9922Z" fill="#662E8F"/>
<path d="M72.6258 57.8762C69.624 57.8762 67.6179 55.9861 67.6179 53.165C67.6179 50.3439 69.6314 48.4396 72.6258 48.4396C75.6203 48.4396 77.6337 50.3298 77.6337 53.1509C77.6337 55.972 75.6203 57.8762 72.6258 57.8762ZM72.6258 43.5098C66.4895 43.5098 62.374 47.3747 62.374 53.1791C62.374 58.9835 66.4895 62.8131 72.6258 62.8131C78.7622 62.8131 82.8777 58.9482 82.8777 53.1438C82.8777 47.3394 78.7622 43.5098 72.6258 43.5098Z" fill="#662E8F"/>
<path d="M100.482 45.4004C99.6339 44.7657 98.6383 44.2861 97.5024 43.9546C96.3593 43.6232 95.1497 43.4609 93.8738 43.4609C92.5978 43.4609 91.3587 43.6232 90.2303 43.9546C89.1019 44.2861 88.1062 44.7657 87.2506 45.4004C86.3951 46.0352 85.7166 46.8251 85.2224 47.7772C84.7283 48.7293 84.4849 49.8155 84.4849 51.0356V59.2661C84.4849 60.8318 85.8124 62.1013 87.4498 62.1013C89.0871 62.1013 90.4147 60.8318 90.4147 59.2661V52.3403C90.4147 49.9001 91.5652 48.68 93.8738 48.68C94.9801 48.68 95.8282 48.9832 96.4183 49.5757C97.0083 50.1751 97.3033 51.092 97.3033 52.3403V59.2661C97.3033 60.8318 98.6309 62.1013 100.268 62.1013C101.906 62.1013 103.233 60.8318 103.233 59.2661V51.0356C103.233 49.8155 102.99 48.7293 102.496 47.7772C102.001 46.8251 101.338 46.0352 100.489 45.4004" fill="#662E8F"/>
<path d="M110.867 51.628C110.889 51.1555 110.992 50.6971 111.162 50.2386C111.332 49.7802 111.583 49.3782 111.914 49.0256C112.246 48.6729 112.659 48.3838 113.146 48.1651C113.64 47.9394 114.216 47.8336 114.879 47.8336C115.809 47.8336 116.509 48.017 116.981 48.3767C117.446 48.7434 117.682 49.1666 117.682 49.6603C117.682 49.893 117.63 50.1328 117.534 50.3656C117.439 50.5983 117.166 50.8099 116.723 51.0003C116.281 51.1907 115.602 51.3388 114.695 51.4587C113.788 51.5786 112.512 51.6351 110.867 51.6351M117.844 54.9075C119.253 54.6466 120.374 54.2798 121.193 53.8003C122.019 53.3207 122.587 52.7353 122.904 52.0371C123.221 51.3459 123.383 50.563 123.383 49.6956C123.383 48.8986 123.191 48.1228 122.815 47.3682C122.432 46.6206 121.886 45.9506 121.156 45.3581C120.433 44.7727 119.541 44.3073 118.486 43.9687C117.431 43.6302 116.244 43.4609 114.916 43.4609C113.493 43.4609 112.165 43.6866 110.941 44.1451C109.709 44.6035 108.647 45.2453 107.74 46.0634C106.833 46.8815 106.117 47.883 105.601 49.0538C105.085 50.2316 104.827 51.5222 104.827 52.9257C104.827 54.428 105.085 55.768 105.601 56.9387C106.117 58.1165 106.825 59.1039 107.718 59.915C108.61 60.726 109.665 61.3396 110.867 61.7628C112.069 62.186 113.36 62.3975 114.732 62.3975C115.838 62.3975 116.849 62.32 117.77 62.1719C118.692 62.0167 119.496 61.8404 120.182 61.6288C120.19 61.6288 120.197 61.6288 120.204 61.6217C121.679 61.1563 122.365 59.5412 121.672 58.2082L121.62 58.1095C121.193 57.2984 120.219 56.8964 119.312 57.1503H119.297C118.877 57.2702 118.39 57.3831 117.822 57.4888C117.254 57.5946 116.657 57.644 116.015 57.644C115.182 57.644 114.466 57.5735 113.876 57.4324C113.286 57.2914 112.799 57.1009 112.423 56.8682C112.04 56.6355 111.745 56.3816 111.538 56.1136C111.332 55.8455 111.199 55.5705 111.155 55.2884H112.445C114.629 55.2884 116.428 55.1614 117.837 54.9005" fill="#662E8F"/>
</svg>
